<svg width="32" height="32" viewBox="0 0 32 32" fill="none" xmlns="http://www.w3.org/2000/svg">
<path d="M8 6.5H23.2C24.0648 6.5 24.6232 6.50117 25.0482 6.53589C25.4557 6.56918 25.6068 6.6257 25.681 6.66349C25.9632 6.8073 26.1927 7.03677 26.3365 7.31901C26.3743 7.39318 26.4308 7.54426 26.4641 7.95175C26.4988 8.37676 26.5 8.93517 26.5 9.8V18.44C26.5 19.3048 26.4988 19.8632 26.4641 20.2882C26.4308 20.6957 26.3743 20.8468 26.3365 20.921C26.1927 21.2032 25.9632 21.4327 25.681 21.5765C25.6068 21.6143 25.4557 21.6708 25.0482 21.7041C24.6232 21.7388 24.0648 21.74 23.2 21.74H15.2113C15.1751 21.74 15.1393 21.74 15.1037 21.7399C14.5756 21.7395 14.1097 21.7391 13.6514 21.8347C13.2484 21.9186 12.8589 22.0575 12.4937 22.2474C12.0783 22.4633 11.7178 22.7584 11.309 23.0928C11.2815 23.1153 11.2538 23.138 11.2258 23.1609L10.8876 23.4371C9.61237 24.4788 8.73539 25.1932 8.04726 25.6584C7.3347 26.1402 7.07228 26.1753 7.01231 26.1758C6.55337 26.1796 6.11797 25.973 5.83055 25.6152C5.79299 25.5684 5.65419 25.343 5.57651 24.4864C5.50149 23.6591 5.5 22.528 5.5 20.8813V9C5.5 7.97346 5.51288 7.75444 5.55111 7.61177C5.68981 7.09413 6.09413 6.68981 6.61177 6.55111C6.75444 6.51288 6.97346 6.5 8 6.5Z" stroke="#626262" stroke-width="3"/>
</svg>
