<svg width="56" height="56" viewBox="0 0 56 56" fill="none" xmlns="http://www.w3.org/2000/svg">
<path fill-rule="evenodd" clip-rule="evenodd" d="M20 17.2857C20 13.8142 23.4654 11 27 11H29C32.5346 11 36 13.8142 36 17.2857V26.7143C36 30.1858 32.5346 33 29 33H27C23.4654 33 20 30.1858 20 26.7143V17.2857ZM27 14C25.2327 14 23 15.7642 23 17.5V26.5C23 28.2358 25.2327 30 27 30H29C30.7673 30 33 28.45 33 26.7143V17.5C33 15.7642 30.7673 14 29 14H27Z" fill="#E1E1E1"/>
<path fill-rule="evenodd" clip-rule="evenodd" d="M16.5 23C17.4205 23 17.9998 23.7462 17.9998 24.6667V26.3333C17.9998 30.9357 21.8976 35 26.5 35H29.5C34.1024 35 37.9998 30.9357 37.9998 26.3333V24.6667C37.9998 23.7462 38.5795 23 39.5 23C40.4205 23 41 23.7462 41 24.6667V26.3334C41 32.7767 36.1098 38 29.6665 38H26.3332C19.8898 38 15 32.7767 15 26.3334V24.8334C15 23.9129 15.5795 23 16.5 23Z" fill="#E1E1E1"/>
<path fill-rule="evenodd" clip-rule="evenodd" d="M28 36C28.9205 36 29.6668 37.4129 29.6668 38.3333V43.3333C29.6668 44.2538 28.9206 45 28.0002 45C27.0797 45 26.3335 44.2538 26.3335 43.3333L26.3335 38.3333C26.3335 37.4129 27.0795 36 28 36Z" fill="#E1E1E1"/>
</svg>
