<svg width="32" height="32" viewBox="0 0 32 32" fill="none" xmlns="http://www.w3.org/2000/svg">
<mask id="path-1-inside-1_972_1461" fill="white">
<path fill-rule="evenodd" clip-rule="evenodd" d="M15.8212 2.14951C15.3212 1.86084 14.6962 2.22168 14.6962 2.79903V5.07753C12.9823 5.28212 11.3341 5.88809 9.88873 6.85383C8.07979 8.06252 6.66989 9.78049 5.83733 11.7905C5.00477 13.8005 4.78693 16.0122 5.21137 18.146C5.63581 20.2798 6.68345 22.2398 8.22183 23.7782C9.76021 25.3165 11.7202 26.3642 13.854 26.7886C15.9878 27.2131 18.1995 26.9952 20.2095 26.1627C22.2195 25.3301 23.9375 23.9202 25.1462 22.1113C26.3549 20.3023 27 18.1756 27 16C27 15.1716 26.3284 14.5 25.5 14.5C24.6716 14.5 24 15.1716 24 16C24 17.5822 23.5308 19.129 22.6518 20.4446C21.7727 21.7601 20.5233 22.7855 19.0615 23.391C17.5997 23.9965 15.9911 24.155 14.4393 23.8463C12.8874 23.5376 11.462 22.7757 10.3432 21.6568C9.22433 20.538 8.46241 19.1126 8.15372 17.5607C7.84504 16.0089 8.00347 14.4003 8.60897 12.9385C9.21447 11.4767 10.2398 10.2273 11.5554 9.34824C12.5062 8.71293 13.5778 8.29171 14.6962 8.10695V10.5933C14.6962 11.1706 15.3212 11.5315 15.8212 11.2428L22.5712 7.34566C23.0712 7.05699 23.0712 6.3353 22.5712 6.04663L15.8212 2.14951Z"/>
</mask>
<path fill-rule="evenodd" clip-rule="evenodd" d="M15.8212 2.14951C15.3212 1.86084 14.6962 2.22168 14.6962 2.79903V5.07753C12.9823 5.28212 11.3341 5.88809 9.88873 6.85383C8.07979 8.06252 6.66989 9.78049 5.83733 11.7905C5.00477 13.8005 4.78693 16.0122 5.21137 18.146C5.63581 20.2798 6.68345 22.2398 8.22183 23.7782C9.76021 25.3165 11.7202 26.3642 13.854 26.7886C15.9878 27.2131 18.1995 26.9952 20.2095 26.1627C22.2195 25.3301 23.9375 23.9202 25.1462 22.1113C26.3549 20.3023 27 18.1756 27 16C27 15.1716 26.3284 14.5 25.5 14.5C24.6716 14.5 24 15.1716 24 16C24 17.5822 23.5308 19.129 22.6518 20.4446C21.7727 21.7601 20.5233 22.7855 19.0615 23.391C17.5997 23.9965 15.9911 24.155 14.4393 23.8463C12.8874 23.5376 11.462 22.7757 10.3432 21.6568C9.22433 20.538 8.46241 19.1126 8.15372 17.5607C7.84504 16.0089 8.00347 14.4003 8.60897 12.9385C9.21447 11.4767 10.2398 10.2273 11.5554 9.34824C12.5062 8.71293 13.5778 8.29171 14.6962 8.10695V10.5933C14.6962 11.1706 15.3212 11.5315 15.8212 11.2428L22.5712 7.34566C23.0712 7.05699 23.0712 6.3353 22.5712 6.04663L15.8212 2.14951Z" fill="#AAAAAA"/>
<path d="M15.8212 2.14951L15.3212 3.01554V3.01554L15.8212 2.14951ZM14.6962 5.07753L14.8147 6.07048L15.6962 5.96526V5.07753H14.6962ZM9.88873 6.85383L10.4443 7.6853L9.88873 6.85383ZM5.83733 11.7905L6.76121 12.1732L5.83733 11.7905ZM5.21137 18.146L6.19215 17.9509L5.21137 18.146ZM8.22183 23.7782L7.51473 24.4853L7.51473 24.4853L8.22183 23.7782ZM13.854 26.7886L14.0491 25.8078H14.0491L13.854 26.7886ZM20.2095 26.1627L19.8268 25.2388L20.2095 26.1627ZM25.1462 22.1113L24.3147 21.5557L25.1462 22.1113ZM27 16H26V16L27 16ZM25.5 14.5V13.5H25.5L25.5 14.5ZM19.0615 23.391L19.4442 24.3149H19.4442L19.0615 23.391ZM14.4393 23.8463L14.2442 24.8271L14.4393 23.8463ZM10.3432 21.6568L11.0503 20.9497L10.3432 21.6568ZM8.15372 17.5607L7.17294 17.7558H7.17294L8.15372 17.5607ZM8.60897 12.9385L9.53285 13.3212L9.53285 13.3212L8.60897 12.9385ZM11.5554 9.34824L12.111 10.1797L12.111 10.1797L11.5554 9.34824ZM14.6962 8.10695H15.6962V6.92821L14.5332 7.12033L14.6962 8.10695ZM15.8212 11.2428L15.3212 10.3768V10.3768L15.8212 11.2428ZM22.5712 7.34566L23.0712 8.21169L22.5712 7.34566ZM22.5712 6.04663L22.0712 6.91265L22.5712 6.04663ZM15.6962 2.79903C15.6962 2.99148 15.4878 3.11176 15.3212 3.01554L16.3212 1.28349C15.1545 0.609912 13.6962 1.45188 13.6962 2.79903H15.6962ZM15.6962 5.07753V2.79903H13.6962V5.07753H15.6962ZM10.4443 7.6853C11.7582 6.80736 13.2566 6.25648 14.8147 6.07048L14.5776 4.08458C12.7079 4.30777 10.9099 4.96882 9.33316 6.02236L10.4443 7.6853ZM6.76121 12.1732C7.51809 10.3459 8.79981 8.78411 10.4443 7.6853L9.33316 6.02236C7.35977 7.34094 5.8217 9.21508 4.91345 11.4078L6.76121 12.1732ZM6.19215 17.9509C5.8063 16.0111 6.00433 14.0004 6.76121 12.1732L4.91345 11.4078C4.0052 13.6005 3.76756 16.0133 4.23058 18.3411L6.19215 17.9509ZM8.92894 23.0711C7.53041 21.6725 6.57801 19.8907 6.19215 17.9509L4.23058 18.3411C4.69361 20.6689 5.83649 22.807 7.51473 24.4853L8.92894 23.0711ZM14.0491 25.8078C12.1093 25.422 10.3275 24.4696 8.92894 23.0711L7.51473 24.4853C9.19296 26.1635 11.3312 27.3064 13.6589 27.7694L14.0491 25.8078ZM19.8268 25.2388C17.9996 25.9957 15.9889 26.1937 14.0491 25.8078L13.6589 27.7694C15.9867 28.2324 18.3995 27.9948 20.5922 27.0865L19.8268 25.2388ZM24.3147 21.5557C23.2159 23.2002 21.6541 24.4819 19.8268 25.2388L20.5922 27.0865C22.7849 26.1783 24.6591 24.6402 25.9776 22.6668L24.3147 21.5557ZM26 16C26 17.9778 25.4135 19.9112 24.3147 21.5557L25.9776 22.6668C27.2962 20.6934 28 18.3734 28 16L26 16ZM25.5 15.5C25.7761 15.5 26 15.7238 26 16H28C28 14.6193 26.8807 13.5 25.5 13.5V15.5ZM25 16C25 15.7238 25.2239 15.5 25.5 15.5L25.5 13.5C24.1193 13.5 23 14.6193 23 16H25ZM23.4832 21.0001C24.4722 19.5201 25 17.78 25 16H23C23 17.3845 22.5895 18.7378 21.8203 19.889L23.4832 21.0001ZM19.4442 24.3149C21.0887 23.6337 22.4943 22.4802 23.4832 21.0001L21.8203 19.889C21.0511 21.0401 19.9579 21.9373 18.6788 22.4671L19.4442 24.3149ZM14.2442 24.8271C15.99 25.1743 17.7996 24.9961 19.4442 24.3149L18.6788 22.4671C17.3997 22.997 15.9922 23.1356 14.6344 22.8655L14.2442 24.8271ZM9.63605 22.364C10.8947 23.6226 12.4984 24.4798 14.2442 24.8271L14.6344 22.8655C13.2765 22.5954 12.0292 21.9287 11.0503 20.9497L9.63605 22.364ZM7.17294 17.7558C7.52021 19.5016 8.37737 21.1053 9.63605 22.364L11.0503 20.9497C10.0713 19.9708 9.4046 18.7235 9.13451 17.3656L7.17294 17.7558ZM7.68509 12.5558C7.0039 14.2004 6.82567 16.01 7.17294 17.7558L9.13451 17.3656C8.86441 16.0078 9.00303 14.6003 9.53285 13.3212L7.68509 12.5558ZM10.9999 8.51677C9.51983 9.5057 8.36628 10.9113 7.68509 12.5558L9.53285 13.3212C10.0627 12.0421 10.9599 10.9489 12.111 10.1797L10.9999 8.51677ZM14.5332 7.12033C13.275 7.32817 12.0695 7.80205 10.9999 8.51677L12.111 10.1797C12.943 9.62382 13.8805 9.25524 14.8591 9.09358L14.5332 7.12033ZM15.6962 10.5933V8.10695H13.6962V10.5933H15.6962ZM15.3212 10.3768C15.4878 10.2805 15.6962 10.4008 15.6962 10.5933H13.6962C13.6962 11.9404 15.1545 12.7824 16.3212 12.1088L15.3212 10.3768ZM22.0712 6.47964L15.3212 10.3768L16.3212 12.1088L23.0712 8.21169L22.0712 6.47964ZM22.0712 6.91265C21.9045 6.81643 21.9045 6.57586 22.0712 6.47964L23.0712 8.21169C24.2378 7.53812 24.2378 5.85418 23.0712 5.1806L22.0712 6.91265ZM15.3212 3.01554L22.0712 6.91265L23.0712 5.1806L16.3212 1.28349L15.3212 3.01554Z" fill="#AAAAAA" mask="url(#path-1-inside-1_972_1461)"/>
</svg>
